<?xml version="1.0" encoding="UTF-8"?>
<svg xmlns="http://www.w3.org/2000/svg" version="1.1" width="100" height="100" viewBox="0 0 100 100"><rect x="0" y="0" width="100" height="100" fill="#ffffff"/><g transform="scale(3.448)"><g transform="translate(0,0)"><path fill-rule="evenodd" d="M10 0L10 1L9 1L9 2L8 2L8 3L9 3L9 5L10 5L10 7L11 7L11 8L12 8L12 9L11 9L11 10L10 10L10 9L9 9L9 6L8 6L8 8L4 8L4 9L3 9L3 8L0 8L0 11L2 11L2 12L1 12L1 14L0 14L0 16L3 16L3 18L2 18L2 17L1 17L1 18L0 18L0 19L1 19L1 20L0 20L0 21L1 21L1 20L2 20L2 21L3 21L3 20L4 20L4 21L8 21L8 25L11 25L11 26L10 26L10 27L12 27L12 28L11 28L11 29L12 29L12 28L14 28L14 29L16 29L16 27L15 27L15 26L14 26L14 25L13 25L13 24L12 24L12 23L10 23L10 24L9 24L9 21L8 21L8 19L7 19L7 18L8 18L8 17L7 17L7 16L9 16L9 17L10 17L10 16L12 16L12 17L11 17L11 18L9 18L9 20L10 20L10 21L11 21L11 22L12 22L12 20L14 20L14 22L13 22L13 23L14 23L14 22L15 22L15 18L14 18L14 17L13 17L13 16L12 16L12 15L10 15L10 14L12 14L12 12L14 12L14 14L13 14L13 15L14 15L14 14L15 14L15 13L18 13L18 12L19 12L19 13L20 13L20 11L21 11L21 12L22 12L22 14L24 14L24 11L25 11L25 14L27 14L27 17L26 17L26 18L25 18L25 20L24 20L24 19L22 19L22 18L24 18L24 17L23 17L23 16L22 16L22 15L21 15L21 14L20 14L20 15L21 15L21 16L22 16L22 17L21 17L21 20L20 20L20 22L19 22L19 24L20 24L20 25L19 25L19 27L18 27L18 26L17 26L17 25L18 25L18 23L15 23L15 24L16 24L16 26L17 26L17 29L18 29L18 28L20 28L20 29L23 29L23 28L22 28L22 25L24 25L24 27L25 27L25 29L26 29L26 27L27 27L27 29L29 29L29 28L28 28L28 27L29 27L29 21L26 21L26 22L25 22L25 20L26 20L26 18L27 18L27 20L28 20L28 19L29 19L29 16L28 16L28 15L29 15L29 12L28 12L28 11L29 11L29 9L28 9L28 10L26 10L26 9L27 9L27 8L26 8L26 9L25 9L25 10L24 10L24 9L23 9L23 8L21 8L21 9L22 9L22 10L20 10L20 11L16 11L16 12L15 12L15 10L14 10L14 9L13 9L13 8L12 8L12 7L13 7L13 5L14 5L14 7L15 7L15 8L16 8L16 7L17 7L17 10L18 10L18 8L20 8L20 7L21 7L21 6L20 6L20 5L21 5L21 2L20 2L20 1L21 1L21 0L19 0L19 2L18 2L18 1L17 1L17 2L18 2L18 3L19 3L19 4L16 4L16 5L14 5L14 3L12 3L12 2L11 2L11 3L12 3L12 5L10 5L10 3L9 3L9 2L10 2L10 1L11 1L11 0ZM14 0L14 1L13 1L13 2L14 2L14 1L15 1L15 0ZM15 2L15 3L16 3L16 2ZM19 2L19 3L20 3L20 2ZM17 5L17 7L18 7L18 5ZM11 6L11 7L12 7L12 6ZM15 6L15 7L16 7L16 6ZM19 6L19 7L20 7L20 6ZM1 9L1 10L2 10L2 11L3 11L3 12L4 12L4 11L6 11L6 12L5 12L5 13L3 13L3 14L4 14L4 15L3 15L3 16L5 16L5 14L7 14L7 15L6 15L6 16L7 16L7 15L8 15L8 14L7 14L7 13L6 13L6 12L7 12L7 11L6 11L6 10L7 10L7 9L4 9L4 11L3 11L3 9ZM8 10L8 11L10 11L10 10ZM13 10L13 11L14 11L14 10ZM25 10L25 11L26 11L26 13L27 13L27 14L28 14L28 13L27 13L27 11L26 11L26 10ZM11 11L11 12L12 12L12 11ZM9 12L9 14L10 14L10 12ZM9 15L9 16L10 16L10 15ZM17 15L17 17L16 17L16 19L17 19L17 21L16 21L16 22L17 22L17 21L18 21L18 19L19 19L19 17L20 17L20 16L19 16L19 15ZM24 15L24 16L26 16L26 15ZM18 16L18 17L19 17L19 16ZM4 17L4 18L3 18L3 19L4 19L4 20L7 20L7 19L6 19L6 18L7 18L7 17L6 17L6 18L5 18L5 17ZM27 17L27 18L28 18L28 17ZM1 18L1 19L2 19L2 18ZM4 18L4 19L5 19L5 18ZM13 18L13 19L14 19L14 18ZM17 18L17 19L18 19L18 18ZM10 19L10 20L12 20L12 19ZM21 21L21 24L24 24L24 21ZM22 22L22 23L23 23L23 22ZM26 22L26 26L27 26L27 27L28 27L28 26L27 26L27 25L28 25L28 23L27 23L27 22ZM11 24L11 25L12 25L12 24ZM8 26L8 29L10 29L10 28L9 28L9 26ZM13 26L13 27L14 27L14 26ZM20 26L20 27L21 27L21 26ZM0 0L0 7L7 7L7 0ZM1 1L1 6L6 6L6 1ZM2 2L2 5L5 5L5 2ZM22 0L22 7L29 7L29 0ZM23 1L23 6L28 6L28 1ZM24 2L24 5L27 5L27 2ZM0 22L0 29L7 29L7 22ZM1 23L1 28L6 28L6 23ZM2 24L2 27L5 27L5 24Z" fill="#000000"/></g></g></svg>
